<?xml version="1.0" standalone="no"?>
<!DOCTYPE svg PUBLIC "-//W3C//DTD SVG 20010904//EN"
 "http://www.w3.org/TR/2001/REC-SVG-20010904/DTD/svg10.dtd">
<svg version="1.0" xmlns="http://www.w3.org/2000/svg"
 width="1039.000000pt" height="234.000000pt" viewBox="0 0 1039.000000 234.000000"
 preserveAspectRatio="xMidYMid meet">

<g transform="translate(0.000000,234.000000) scale(0.100000,-0.100000)"
fill="#000000" stroke="none">
<path d="M3617 2234 c-4 -4 -7 -83 -7 -176 l0 -168 190 0 190 0 -2 173 -3 172
-181 3 c-99 1 -183 -1 -187 -4z"/>
<path d="M8810 1210 l0 -1000 190 0 c145 0 190 3 191 13 0 6 1 114 2 238 l2
225 78 77 c47 45 84 74 90 70 19 -11 49 -55 81 -118 9 -16 31 -57 51 -90 19
-33 39 -69 44 -80 9 -20 92 -166 111 -195 6 -8 16 -26 22 -40 7 -14 23 -42 35
-63 l23 -37 226 0 225 0 -7 22 c-4 13 -14 34 -23 48 -9 14 -22 34 -29 45 -30
51 -179 299 -192 320 -20 31 -208 345 -242 403 -32 55 -34 85 -10 110 9 10 66
72 126 137 60 66 162 176 225 244 64 68 116 128 116 135 0 12 -375 22 -430 11
-22 -5 -53 -33 -119 -110 -49 -57 -103 -119 -121 -137 -17 -18 -57 -64 -90
-103 -33 -38 -77 -88 -98 -111 -21 -23 -45 -50 -53 -60 -14 -18 -14 -18 -29 0
-13 17 -15 92 -15 533 l0 513 -190 0 -190 0 0 -1000z"/>
<path d="M785 1719 c-89 -10 -163 -34 -242 -79 -168 -96 -265 -249 -318 -500
-21 -100 -21 -357 0 -426 8 -27 15 -57 15 -67 0 -18 9 -41 51 -136 27 -59 99
-152 152 -194 58 -48 152 -97 217 -114 137 -36 348 -36 478 1 167 47 307 169
381 331 13 28 27 60 33 71 6 12 11 46 12 75 l1 54 -174 3 c-151 2 -176 0 -192
-14 -11 -10 -19 -24 -19 -33 0 -51 -80 -149 -148 -182 -38 -19 -56 -21 -136
-17 -76 4 -98 9 -131 30 -109 70 -151 171 -162 384 -9 181 31 331 109 415 47
50 76 66 155 84 62 14 75 14 126 1 32 -8 71 -24 87 -36 40 -29 87 -91 96 -126
3 -16 13 -39 20 -51 14 -22 19 -23 195 -23 144 0 181 3 185 14 12 32 -21 163
-58 226 -4 8 -11 22 -15 30 -10 24 -75 102 -112 135 -138 123 -352 173 -606
144z"/>
<path d="M2403 1719 c-39 -5 -99 -18 -133 -29 -59 -20 -73 -26 -122 -52 -13
-6 -36 -18 -53 -27 -48 -24 -168 -151 -209 -220 -80 -137 -101 -229 -101 -441
0 -212 22 -306 101 -439 93 -156 239 -261 432 -312 111 -29 335 -29 447 0 43
12 84 26 89 31 6 6 16 10 24 10 24 0 151 81 200 129 100 96 158 195 198 339
20 75 24 109 24 242 0 85 -5 171 -10 190 -41 159 -79 241 -156 334 -53 65
-194 175 -225 176 -8 0 -19 4 -25 9 -19 19 -135 51 -221 61 -100 11 -157 11
-260 -1z m210 -314 c155 -30 237 -115 283 -295 13 -50 15 -92 11 -190 -7 -179
-47 -279 -139 -352 -74 -59 -116 -71 -231 -71 -123 1 -176 21 -247 92 -56 56
-76 93 -101 193 -42 162 -7 422 67 496 7 7 19 21 26 31 25 36 107 81 170 95
82 18 72 18 161 1z"/>
<path d="M5115 1719 c-33 -5 -74 -16 -91 -24 -18 -8 -34 -15 -38 -15 -3 0 -25
-13 -49 -30 -41 -27 -86 -74 -136 -140 l-19 -25 -11 28 c-6 16 -11 62 -11 103
l0 74 -177 -2 -178 -3 0 -735 0 -735 185 0 185 0 6 470 c3 268 10 485 16 505
33 116 115 191 232 214 119 22 241 -12 288 -82 46 -68 47 -81 53 -607 l5 -500
185 0 185 0 3 515 c3 542 -2 631 -40 717 -91 208 -318 312 -593 272z"/>
<path d="M6562 1719 c-203 -22 -346 -110 -418 -259 -36 -73 -64 -163 -64 -204
l0 -26 183 2 182 3 15 47 c19 59 52 94 115 124 41 20 66 24 141 24 79 0 97 -3
145 -27 89 -46 127 -127 93 -198 -19 -41 -74 -71 -147 -81 -23 -3 -80 -11
-127 -19 -47 -8 -114 -19 -150 -24 -144 -23 -177 -33 -285 -83 -76 -35 -143
-110 -185 -208 -22 -49 -25 -70 -25 -185 0 -127 1 -132 32 -196 52 -106 121
-166 240 -211 82 -30 280 -30 370 1 107 36 188 86 255 156 19 20 20 20 34 1 8
-11 14 -26 14 -34 0 -8 8 -36 17 -63 l18 -49 207 0 208 0 0 23 c0 12 -13 34
-28 47 -55 49 -56 52 -62 620 l-6 525 -24 45 c-34 64 -113 143 -173 175 -142
73 -337 99 -575 74z m406 -889 c4 -119 -17 -192 -74 -258 -115 -131 -326 -173
-428 -84 -27 24 -56 97 -56 142 0 45 24 106 53 138 42 46 137 79 287 101 36 6
88 19 115 30 28 11 61 19 75 18 24 -2 25 -4 28 -87z"/>
<path d="M8375 1718 c-30 -5 -72 -24 -105 -47 -59 -40 -146 -139 -162 -183 -5
-16 -16 -28 -24 -28 -8 0 -15 1 -15 3 -1 1 -4 52 -8 112 l-6 110 -171 3 c-136
2 -174 0 -183 -11 -8 -11 -10 -205 -9 -738 l3 -724 190 0 190 0 1 420 c0 444
4 488 50 561 28 44 82 92 128 113 45 19 228 47 245 37 5 -4 22 -4 36 0 l25 6
0 177 c0 124 -4 181 -12 189 -14 14 -99 14 -173 0z"/>
<path d="M3617 1684 c-4 -4 -7 -337 -7 -741 l0 -733 189 0 c117 0 191 4 193
10 2 5 1 337 -2 737 l-5 728 -181 3 c-99 1 -183 -1 -187 -4z"/>
</g>
</svg>
