<svg width="394" height="81" viewBox="0 0 394 81" fill="none" xmlns="http://www.w3.org/2000/svg">
<mask id="mask0_7_11" style="mask-type:alpha" maskUnits="userSpaceOnUse" x="5" y="0" width="389" height="81">
<path d="M138.175 0.166064C138.019 0.321944 137.902 3.40058 137.902 7.0248V13.5718H145.306H152.711L152.633 6.82995L152.516 0.127094L145.462 0.0101833C141.604 -0.0287868 138.331 0.0491534 138.175 0.166064Z" fill="#12B886"/>
<path d="M340.547 40.0714V79.0415H347.951C353.602 79.0415 355.355 78.9246 355.394 78.5349C355.394 78.3011 355.433 74.0923 355.472 69.26L355.55 60.4917L358.59 57.491C360.421 55.7374 361.863 54.6073 362.097 54.7631C362.838 55.1918 364.007 56.9065 365.254 59.3616C365.604 59.9851 366.462 61.5829 367.241 62.8689C367.982 64.1549 368.761 65.5578 368.956 65.9865C369.307 66.7659 372.541 72.4556 373.282 73.5857C373.515 73.8975 373.905 74.5989 374.139 75.1445C374.412 75.6901 375.035 76.7812 375.503 77.5996L376.399 79.0415H385.206H393.975L393.702 78.1842C393.546 77.6776 393.156 76.8592 392.806 76.3136C392.455 75.768 391.948 74.9886 391.675 74.5599C390.506 72.5725 384.7 62.9079 384.193 62.0895C383.414 60.8814 376.087 48.6448 374.762 46.3846C373.515 44.2412 373.437 43.0721 374.373 42.0978C374.723 41.7081 376.945 39.292 379.283 36.7589C381.621 34.1869 385.596 29.9002 388.051 27.2502C390.545 24.6003 392.572 22.2621 392.572 21.9893C392.572 21.5216 377.958 21.1319 375.815 21.5606C374.957 21.7555 373.749 22.8466 371.177 25.8473C369.268 28.0686 367.163 30.4848 366.462 31.1862C365.799 31.8877 364.24 33.6803 362.954 35.2001C361.668 36.681 359.954 38.6295 359.135 39.5258C358.317 40.4221 357.382 41.4743 357.07 41.864C356.524 42.5655 356.524 42.5655 355.94 41.864C355.433 41.2015 355.355 38.2788 355.355 21.093V1.1013H347.951H340.547V40.0714Z" fill="#12B886"/>
<path d="M27.8115 20.2356C24.3432 20.6253 21.4594 21.5606 18.3808 23.3142C11.8338 27.0554 8.05371 33.0178 5.98829 42.7993C5.16992 46.6963 5.16992 56.7116 5.98829 59.4005C6.30005 60.4527 6.57284 61.6218 6.57284 62.0115C6.57284 62.713 6.92357 63.6093 8.56032 67.3115C9.61251 69.6107 12.4184 73.2349 14.4838 74.8717C16.744 76.7422 20.4072 78.6518 22.9403 79.3143C28.2792 80.7172 36.5019 80.7172 41.568 79.2753C48.076 77.4437 53.5318 72.6893 56.4156 66.3762C56.9222 65.285 57.4678 64.038 57.7016 63.6093C57.9354 63.1417 58.1303 61.8167 58.1693 60.6866L58.2082 58.5822L51.4274 58.4653C45.5429 58.3873 44.5687 58.4653 43.9452 59.0108C43.5165 59.4005 43.2047 59.9461 43.2047 60.2969C43.2047 62.2843 40.0871 66.1034 37.4372 67.3894C35.9563 68.1298 35.2548 68.2078 32.1372 68.0519C29.1755 67.896 28.3182 67.7012 27.0321 66.8828C22.7844 64.1549 21.1477 60.2189 20.719 51.9183C20.3683 44.8647 21.9271 39.0192 24.9667 35.7457C26.7983 33.7972 27.9285 33.1737 31.0071 32.4722C33.4232 31.9266 33.9299 31.9266 35.9173 32.4332C37.1644 32.745 38.6842 33.3685 39.3077 33.8362C40.8665 34.9663 42.6981 37.3824 43.0489 38.7464C43.1658 39.3699 43.5555 40.2662 43.8283 40.7339C44.3738 41.5912 44.5687 41.6302 51.4274 41.6302C57.0391 41.6302 58.481 41.5133 58.6369 41.0846C59.1045 39.8375 57.8185 34.7325 56.3766 32.2773C56.2207 31.9656 55.948 31.42 55.7921 31.1082C55.4024 30.173 52.8693 27.1333 51.4274 25.8473C46.0496 21.054 37.71 19.1055 27.8115 20.2356Z" fill="#12B886"/>
<path d="M90.8653 20.2356C89.3454 20.4304 87.0072 20.9371 85.6822 21.3657C83.383 22.1451 82.8374 22.379 80.9279 23.3922C80.4213 23.626 79.525 24.0936 78.8625 24.4444C76.9919 25.3796 72.3155 30.3289 70.7177 33.0178C67.6001 38.3567 66.7817 41.9419 66.7817 50.2036C66.7817 58.4653 67.6391 62.1285 70.7177 67.3115C74.3419 73.3908 80.0316 77.4827 87.5528 79.4701C91.8785 80.6003 100.608 80.6003 104.972 79.4701C106.648 79.0025 108.246 78.4569 108.441 78.2621C108.675 78.0283 109.064 77.8724 109.376 77.8724C110.311 77.8724 115.261 74.7158 117.17 72.8452C121.067 69.1041 123.327 65.2461 124.886 59.6344C125.666 56.7116 125.821 55.3866 125.821 50.2036C125.821 46.8911 125.627 43.5397 125.432 42.7993C123.834 36.603 122.353 33.4075 119.352 29.7833C117.287 27.2502 111.792 22.9635 110.584 22.9245C110.272 22.9245 109.844 22.7687 109.61 22.5738C108.869 21.8334 104.349 20.5863 100.997 20.1966C97.1005 19.768 94.8792 19.768 90.8653 20.2356ZM99.049 32.4722C105.089 33.6413 108.285 36.9538 110.078 43.9684C110.584 45.9169 110.662 47.5536 110.506 51.3727C110.233 58.3484 108.675 62.2454 105.089 65.0902C102.206 67.3894 100.569 67.8571 96.0873 67.8571C91.2939 67.8181 89.2285 67.0387 86.4616 64.2718C84.2793 62.0895 83.4999 60.6476 82.5257 56.7506C80.8889 50.4374 82.2529 40.3052 85.1367 37.4214C85.4094 37.1486 85.8771 36.603 86.1499 36.2133C87.1241 34.8104 90.3197 33.0568 92.7748 32.5112C95.9703 31.8097 95.5806 31.8097 99.049 32.4722Z" fill="#12B886"/>
<path d="M196.552 20.2356C195.266 20.4304 193.668 20.8591 193.006 21.1709C192.304 21.4826 191.681 21.7554 191.525 21.7554C191.408 21.7554 190.551 22.262 189.615 22.9245C188.018 23.9767 186.264 25.8083 184.315 28.3803L183.575 29.3546L183.146 28.2634C182.913 27.6399 182.718 25.8473 182.718 24.2495V21.3657L175.82 21.4437L168.883 21.5606V50.2036V78.8466H176.093H183.302L183.536 60.5307C183.653 50.0867 183.926 41.6302 184.16 40.8508C185.446 36.3302 188.641 33.4075 193.201 32.5112C197.838 31.6538 202.592 32.9788 204.424 35.7067C206.217 38.3567 206.256 38.8633 206.489 59.3616L206.684 78.8466H213.894H221.103L221.22 58.777C221.337 37.6552 221.142 34.1869 219.661 30.8355C216.115 22.7297 207.269 18.6768 196.552 20.2356Z" fill="#12B886"/>
<path d="M252.942 20.2356C245.031 21.093 239.458 24.5223 236.652 30.3289C235.249 33.1737 234.158 36.681 234.158 38.2788V39.292L241.29 39.2141L248.382 39.0972L248.967 37.2656C249.707 34.9663 250.993 33.6024 253.448 32.4333C255.046 31.6539 256.02 31.498 258.943 31.498C262.022 31.498 262.723 31.6149 264.594 32.5502C268.062 34.3428 269.543 37.4994 268.218 40.2663C267.478 41.864 265.334 43.0331 262.489 43.4228C261.593 43.5397 259.372 43.8515 257.54 44.1633C255.709 44.475 253.098 44.9037 251.695 45.0985C246.083 45.9949 244.797 46.3846 240.588 48.3331C237.627 49.697 235.016 52.6198 233.379 56.4388C232.521 58.3484 232.405 59.1668 232.405 63.6483C232.405 68.5975 232.444 68.7924 233.652 71.2865C235.678 75.4173 238.367 77.7555 243.004 79.5091C246.2 80.6783 253.916 80.6783 257.423 79.4702C261.593 78.0673 264.75 76.1187 267.361 73.3908C268.101 72.6114 268.14 72.6114 268.686 73.3519C268.997 73.7805 269.231 74.3651 269.231 74.6769C269.231 74.9886 269.543 76.0798 269.894 77.132L270.595 79.0415H278.662H286.768V78.1452C286.768 77.6776 286.261 76.8202 285.677 76.3136C283.533 74.4041 283.494 74.2872 283.261 52.1521L283.027 31.6928L282.091 29.9392C280.766 27.4451 277.688 24.3665 275.35 23.1194C269.816 20.2746 262.217 19.2614 252.942 20.2356ZM268.764 54.88C268.92 59.5175 268.101 62.3623 265.88 64.9343C261.398 70.0394 253.176 71.6762 249.201 68.2078C248.148 67.2725 247.018 64.4277 247.018 62.6741C247.018 60.9204 247.954 58.5432 249.084 57.2962C250.72 55.5036 254.423 54.2176 260.268 53.3602C261.671 53.1264 263.698 52.6198 264.75 52.1911C265.841 51.7624 267.127 51.4507 267.672 51.4896C268.608 51.5676 268.647 51.6455 268.764 54.88Z" fill="#12B886"/>
<path d="M323.595 20.2746C322.425 20.4694 320.789 21.2098 319.503 22.1062C317.203 23.665 313.813 27.523 313.19 29.2377C312.995 29.8612 312.566 30.3288 312.254 30.3288C311.943 30.3288 311.67 30.2899 311.67 30.2119C311.631 30.173 311.514 28.1855 311.358 25.8473L311.124 21.5606L304.46 21.4437C299.16 21.3657 297.679 21.4437 297.329 21.8723C297.017 22.301 296.939 29.8612 296.978 50.6323L297.095 78.8466H304.499H311.904L311.943 62.4792C311.943 45.1765 312.098 43.4618 313.891 40.6169C314.982 38.9023 317.087 37.0317 318.879 36.2133C320.633 35.4729 327.764 34.3817 328.427 34.7714C328.622 34.9273 329.284 34.9273 329.83 34.7714L330.804 34.5376V27.6399C330.804 22.8076 330.648 20.5863 330.336 20.2746C329.791 19.729 326.478 19.729 323.595 20.2746Z" fill="#12B886"/>
<path d="M138.175 21.5996C138.019 21.7555 137.902 34.7325 137.902 50.4764V79.0415H145.267C149.827 79.0415 152.711 78.8856 152.789 78.6518C152.867 78.457 152.828 65.5189 152.711 49.9308L152.516 21.5606L145.462 21.4437C141.604 21.4047 138.331 21.4827 138.175 21.5996Z" fill="#12B886"/>
</mask>
<g mask="url(#mask0_7_11)">
<rect x="64.1013" y="-24.7083" width="336.7" height="122.347" fill="#12B886"/>
</g>
<rect x="31.99" y="39.1007" width="15.2262" height="15.2262" transform="rotate(45 31.99 39.1007)" fill="#12B886"/>
<path fill-rule="evenodd" clip-rule="evenodd" d="M0.480713 49.679C0.480713 32.3809 14.5036 18.358 31.8017 18.358C46.0412 18.358 58.0614 27.8605 61.8669 40.87H48.1838C45.0437 35.0426 38.8852 31.0822 31.8016 31.0822C21.5309 31.0822 13.2048 39.4083 13.2048 49.679C13.2048 59.9498 21.5309 68.2759 31.8016 68.2759C38.8852 68.2759 45.0437 64.3154 48.1838 58.4881H61.8668C58.0613 71.4976 46.0412 81 31.8017 81C14.5036 81 0.480713 66.9771 0.480713 49.679ZM63.1226 49.7471C63.1226 49.7244 63.1226 49.7017 63.1226 49.679C63.1226 49.6563 63.1226 49.6336 63.1226 49.6109V49.7471Z" fill="#12B886"/>
</svg>
