<svg width="406" height="86" viewBox="0 0 406 86" fill="none" xmlns="http://www.w3.org/2000/svg">
<mask id="mask0_3_36" style="mask-type:alpha" maskUnits="userSpaceOnUse" x="8" y="0" width="398" height="83">
<path d="M143.679 0.413528C143.52 0.572788 143.401 3.71817 143.401 7.42096V14.1099H150.966H158.53L158.451 7.22189L158.331 0.373713L151.125 0.254268C147.183 0.214454 143.839 0.294083 143.679 0.413528Z" fill="#12B886"/>
<path d="M350.439 41.1841V80.999H358.003C363.777 80.999 365.568 80.8796 365.608 80.4814C365.608 80.2426 365.648 75.9425 365.688 71.0055L365.767 62.0471L368.873 58.9814C370.744 57.1897 372.217 56.035 372.456 56.1943C373.213 56.6323 374.407 58.3841 375.681 60.8925C376.04 61.5295 376.916 63.1619 377.712 64.4758C378.468 65.7897 379.265 67.2231 379.464 67.661C379.822 68.4573 383.127 74.2703 383.883 75.4249C384.122 75.7435 384.52 76.4601 384.759 77.0175C385.038 77.5749 385.675 78.6898 386.153 79.5259L387.068 80.999H396.067H405.025L404.746 80.1231C404.587 79.6055 404.189 78.7694 403.831 78.212C403.472 77.6546 402.955 76.8583 402.676 76.4203C401.481 74.3897 395.549 64.5156 395.031 63.6795C394.235 62.4453 386.75 49.9434 385.396 47.6341C384.122 45.4443 384.042 44.2498 384.998 43.2544C385.356 42.8563 387.626 40.3878 390.015 37.7998C392.404 35.172 396.465 30.7924 398.973 28.0849C401.521 25.3775 403.592 22.9886 403.592 22.7099C403.592 22.2321 388.661 21.834 386.471 22.2719C385.595 22.471 384.361 23.5858 381.733 26.6516C379.782 28.921 377.632 31.3896 376.916 32.1062C376.239 32.8229 374.646 34.6544 373.332 36.2072C372.018 37.7202 370.266 39.7109 369.43 40.6267C368.594 41.5424 367.639 42.6174 367.32 43.0155C366.763 43.7322 366.763 43.7322 366.166 43.0155C365.648 42.3387 365.568 39.3526 365.568 21.7942V1.36908H358.003H350.439V41.1841Z" fill="#12B886"/>
<path d="M30.9235 20.9182C27.3799 21.3164 24.4336 22.2719 21.2882 24.0636C14.5993 27.8859 10.7373 33.9776 8.62709 43.9711C7.79097 47.9526 7.79097 58.1851 8.62709 60.9323C8.94561 62.0073 9.22431 63.2017 9.22431 63.5999C9.22431 64.3166 9.58265 65.2323 11.2549 69.0147C12.3299 71.3638 15.1966 75.0666 17.3068 76.7388C19.616 78.65 23.3586 80.6009 25.9466 81.2777C31.4013 82.7111 39.8022 82.7111 44.9782 81.2379C51.6273 79.3666 57.2014 74.5092 60.1477 68.0592C60.6653 66.9444 61.2227 65.6703 61.4616 65.2323C61.7004 64.7545 61.8995 63.4008 61.9393 62.2462L61.9792 60.0962L55.0513 59.9767C49.0393 59.8971 48.0439 59.9767 47.4069 60.5341C46.9689 60.9323 46.6504 61.4897 46.6504 61.848C46.6504 63.8786 43.4652 67.7805 40.7578 69.0944C39.2448 69.8508 38.5281 69.9305 35.3429 69.7712C32.317 69.612 31.4411 69.4129 30.1272 68.5768C25.7873 65.7897 24.1151 61.7684 23.6771 53.2878C23.3188 46.0813 24.9114 40.1091 28.017 36.7646C29.8883 34.7738 31.0429 34.1368 34.1883 33.4201C36.6568 32.8627 37.1744 32.8627 39.205 33.3803C40.4791 33.6988 42.0318 34.3359 42.6689 34.8137C44.2615 35.9683 46.1328 38.4368 46.4911 39.8304C46.6106 40.4674 47.0087 41.3831 47.2874 41.8609C47.8448 42.7368 48.0439 42.7767 55.0513 42.7767C60.7847 42.7767 62.2579 42.6572 62.4171 42.2193C62.8949 40.9452 61.581 35.7294 60.1078 33.2211C59.9486 32.9025 59.6699 32.3451 59.5106 32.0266C59.1125 31.0711 56.5245 27.9655 55.0513 26.6516C49.5569 21.7544 41.0365 19.7636 30.9235 20.9182Z" fill="#12B886"/>
<path d="M95.3441 20.9182C93.7913 21.1173 91.4024 21.6349 90.0487 22.0729C87.6996 22.8692 87.1422 23.1081 85.1913 24.1432C84.6737 24.3821 83.758 24.8599 83.0811 25.2183C81.17 26.1738 76.3922 31.2303 74.7598 33.9775C71.5746 39.4322 70.7385 43.0952 70.7385 51.536C70.7385 59.9767 71.6144 63.7193 74.7598 69.0147C78.4626 75.2259 84.2756 79.4064 91.9598 81.437C96.3793 82.5916 105.298 82.5916 109.757 81.437C111.469 80.9592 113.102 80.4018 113.301 80.2027C113.54 79.9638 113.938 79.8046 114.256 79.8046C115.212 79.8046 120.268 76.5796 122.219 74.6685C126.201 70.8462 128.51 66.9045 130.103 61.1712C130.899 58.1851 131.058 56.8313 131.058 51.536C131.058 48.1517 130.859 44.7276 130.66 43.9711C129.028 37.6405 127.515 34.3757 124.449 30.6729C122.339 28.0849 116.725 23.7053 115.49 23.6655C115.172 23.6655 114.734 23.5062 114.495 23.3071C113.739 22.5507 109.12 21.2766 105.696 20.8784C101.715 20.4405 99.4451 20.4405 95.3441 20.9182ZM103.705 33.4201C109.877 34.6146 113.141 37.9989 114.973 45.1656C115.49 47.1563 115.57 48.8285 115.411 52.7304C115.132 59.8573 113.54 63.8388 109.877 66.7453C106.93 69.0944 105.258 69.5721 100.679 69.5721C95.7821 69.5323 93.6719 68.736 90.845 65.9092C88.6154 63.6795 87.8191 62.2064 86.8237 58.2249C85.1515 51.7748 86.545 41.4229 89.4913 38.4766C89.77 38.1979 90.2478 37.6405 90.5265 37.2424C91.5219 35.809 94.7867 34.0174 97.2951 33.46C100.56 32.7433 100.162 32.7433 103.705 33.4201Z" fill="#12B886"/>
<path d="M203.322 20.9182C202.008 21.1173 200.376 21.5553 199.699 21.8738C198.982 22.1923 198.345 22.471 198.186 22.471C198.067 22.471 197.191 22.9886 196.235 23.6655C194.603 24.7405 192.811 26.6118 190.82 29.2396L190.064 30.2349L189.626 29.1201C189.387 28.4831 189.188 26.6516 189.188 25.0192V22.0729L182.141 22.1525L175.054 22.2719V51.536V80.8H182.419H189.785L190.024 62.0869C190.144 51.4165 190.422 42.7767 190.661 41.9804C191.975 37.3618 195.24 34.3757 199.898 33.46C204.636 32.584 209.494 33.9377 211.365 36.7248C213.196 39.4322 213.236 39.9498 213.475 60.8925L213.674 80.8H221.04H228.406L228.525 60.2952C228.645 38.7155 228.446 35.172 226.933 31.7479C223.309 23.4664 214.271 19.3256 203.322 20.9182Z" fill="#12B886"/>
<path d="M260.935 20.9182C252.852 21.7942 247.159 25.2979 244.292 31.2303C242.859 34.1368 241.744 37.7202 241.744 39.3526V40.3878L249.03 40.3081L256.276 40.1887L256.873 38.3174C257.63 35.9683 258.944 34.5748 261.452 33.3803C263.085 32.584 264.08 32.4248 267.066 32.4248C270.211 32.4248 270.928 32.5442 272.839 33.4998C276.383 35.3313 277.896 38.5563 276.542 41.3831C275.786 43.0155 273.596 44.21 270.689 44.6081C269.774 44.7276 267.504 45.0461 265.633 45.3646C263.761 45.6832 261.094 46.1211 259.661 46.3202C253.927 47.2359 252.613 47.6341 248.313 49.6248C245.287 51.0184 242.62 54.0045 240.947 57.9064C240.072 59.8573 239.952 60.6934 239.952 65.2721C239.952 70.3286 239.992 70.5277 241.226 73.0759C243.297 77.2962 246.044 79.6851 250.782 81.4768C254.047 82.6713 261.93 82.6713 265.513 81.437C269.774 80.0037 272.999 78.0129 275.666 75.2259C276.423 74.4296 276.462 74.4296 277.02 75.186C277.338 75.624 277.577 76.2212 277.577 76.5398C277.577 76.8583 277.896 77.9731 278.254 79.0481L278.971 80.999H287.212H295.494V80.0833C295.494 79.6055 294.976 78.7296 294.379 78.212C292.189 76.2611 292.15 76.1416 291.911 53.5267L291.672 32.6238L290.716 30.8322C289.362 28.284 286.217 25.1386 283.828 23.8645C278.174 20.9581 270.411 19.9229 260.935 20.9182ZM277.099 56.3138C277.259 61.0517 276.423 63.9582 274.153 66.586C269.574 71.8018 261.173 73.474 257.112 69.9305C256.037 68.9749 254.883 66.0684 254.883 64.2767C254.883 62.4851 255.838 60.0564 256.993 58.7823C258.665 56.9508 262.448 55.6369 268.42 54.761C269.853 54.5221 271.924 54.0045 272.999 53.5665C274.113 53.1286 275.427 52.81 275.985 52.8498C276.94 52.9295 276.98 53.0091 277.099 56.3138Z" fill="#12B886"/>
<path d="M333.119 20.9581C331.925 21.1571 330.252 21.9136 328.939 22.8294C326.589 24.422 323.126 28.3636 322.489 30.1155C322.289 30.7525 321.851 31.2303 321.533 31.2303C321.214 31.2303 320.936 31.1905 320.936 31.1109C320.896 31.0711 320.776 29.0405 320.617 26.6516L320.378 22.2719L313.57 22.1525C308.155 22.0729 306.642 22.1525 306.284 22.5905C305.965 23.0284 305.886 30.7525 305.925 51.9739L306.045 80.8H313.61H321.175L321.214 64.0777C321.214 46.3998 321.374 44.648 323.205 41.7415C324.32 39.9896 326.47 38.0785 328.301 37.2424C330.093 36.4859 337.379 35.3711 338.056 35.7692C338.255 35.9285 338.932 35.9285 339.49 35.7692L340.485 35.5303V28.4831C340.485 23.546 340.326 21.2766 340.007 20.9581C339.45 20.4006 336.065 20.4006 333.119 20.9581Z" fill="#12B886"/>
<path d="M143.679 22.3118C143.52 22.471 143.401 35.7294 143.401 51.8147V80.999H150.926C155.584 80.999 158.53 80.8398 158.61 80.6009C158.69 80.4018 158.65 67.1832 158.53 51.2572L158.331 22.2719L151.125 22.1525C147.183 22.1127 143.839 22.1923 143.679 22.3118Z" fill="#12B886"/>
</mask>
<g mask="url(#mask0_3_36)">
<rect x="68" y="-25" width="344" height="125" fill="#12B886"/>
</g>
<rect y="16" width="70" height="70" rx="35" fill="white"/>
<path d="M3 51C3 33.3269 17.3269 19 35 19V19C52.6731 19 67 33.3269 67 51V51C67 68.6731 52.6731 83 35 83V83C17.3269 83 3 68.6731 3 51V51Z" fill="#12B886"/>
<rect x="16" y="32" width="38" height="38" rx="19" fill="white"/>
<rect x="35.1924" y="40.1924" width="15.5564" height="15.5564" transform="rotate(45 35.1924 40.1924)" fill="#12B886"/>
<rect x="51" y="42" width="16" height="18" fill="white"/>
</svg>
